<svg width="35" height="35" viewBox="0 0 35 35" fill="none" xmlns="http://www.w3.org/2000/svg">
<g id="email-14-svgrepo-com 1">
<g id="Group">
<path id="Vector" d="M30.1408 4.64331H4.85919C2.17567 4.64331 0 6.81898 0 9.5025V25.4975C0 28.181 2.17567 30.3567 4.85919 30.3567H30.1408C32.8243 30.3567 35 28.181 35 25.4975V9.5025C35 6.81898 32.8243 4.64331 30.1408 4.64331ZM12.1793 21.9926L5.37482 27.7977C4.89487 28.2073 4.17334 28.1503 3.7638 27.6699C3.35419 27.1899 3.41113 26.4684 3.89163 26.0589L10.6961 20.2538C11.176 19.8442 11.8975 19.9011 12.3071 20.3816C12.7167 20.8615 12.6597 21.583 12.1793 21.9926ZM17.5 19.7857C16.5899 19.7834 15.7076 19.481 15.0179 18.8845L15.0184 18.885L15.0162 18.8834C15.0168 18.8839 15.0174 18.8839 15.0179 18.8845L4.57748 9.82283C4.10033 9.40871 4.04954 8.68725 4.46305 8.21071C4.8771 7.73356 5.59863 7.68277 6.0751 8.09628L16.5184 17.1602C16.7416 17.3588 17.1094 17.5023 17.5 17.5C17.8901 17.5012 18.2516 17.3616 18.4871 17.1563L18.4922 17.1518L28.9248 8.09635C29.4014 7.68284 30.1229 7.73363 30.537 8.21078C30.9504 8.68725 30.8997 9.40878 30.4225 9.8229L19.9793 18.8873C19.2918 19.4776 18.4107 19.7845 17.5 19.7857ZM31.2367 27.6699C30.8271 28.1503 30.1055 28.2073 29.6257 27.7977L22.8212 21.9926C22.3408 21.583 22.2839 20.8615 22.6935 20.3816C23.103 19.9011 23.8245 19.8442 24.3044 20.2538L31.1089 26.0589C31.5893 26.4684 31.6463 27.1899 31.2367 27.6699Z" fill="#EDE6DB"/>
</g>
</g>
</svg>
