<?xml version="1.0" encoding="utf-8"?>
<!-- Generator: Adobe Illustrator 28.3.0, SVG Export Plug-In . SVG Version: 6.00 Build 0)  -->
<svg version="1.1" id="Layer_1" xmlns="http://www.w3.org/2000/svg" xmlns:xlink="http://www.w3.org/1999/xlink" x="0px" y="0px"
	 viewBox="0 0 35 35" style="enable-background:new 0 0 35 35;" xml:space="preserve">
<style type="text/css">
	.st0{fill:#EDE6DB;}
</style>
<g id="github">
	<path id="Vector" class="st0" d="M17.5,5.7c-6.6,0-12,5.4-12,12c0,5.6,3.9,10.3,9.1,11.6c-0.1-0.2-0.1-0.3-0.1-0.6v-2
		c-0.5,0-1.3,0-1.5,0c-0.8,0-1.5-0.4-1.9-1c-0.4-0.7-0.5-1.8-1.4-2.5c-0.3-0.2-0.1-0.5,0.3-0.5c0.6,0.2,1.1,0.6,1.6,1.2
		c0.5,0.6,0.7,0.8,1.6,0.8c0.4,0,1.1,0,1.7-0.1c0.3-0.8,0.9-1.6,1.6-2c-4-0.4-5.9-2.4-5.9-5.1c0-1.2,0.5-2.3,1.3-3.2
		c-0.3-0.9-0.6-2.9,0.1-3.6c1.8,0,2.9,1.2,3.1,1.5c0.9-0.3,1.9-0.5,2.9-0.5c1,0,2,0.2,2.9,0.5c0.3-0.3,1.3-1.5,3.1-1.5
		c0.7,0.7,0.4,2.7,0.1,3.6c0.8,0.9,1.3,2.1,1.3,3.2c0,2.7-1.9,4.7-5.9,5.1c1.1,0.6,1.9,2.2,1.9,3.4v2.7c0,0.1,0,0.2,0,0.3
		c4.7-1.6,8-6.1,8-11.3C29.5,11.1,24.1,5.7,17.5,5.7z"/>
</g>
</svg>
