<svg width="35" height="35" viewBox="0 0 35 35" fill="none" xmlns="http://www.w3.org/2000/svg">
<g id="linkedin">
<path id="Vector" d="M28 4.66667H6.99999C5.71082 4.66667 4.66666 5.71083 4.66666 7V28C4.66666 29.2892 5.71082 30.3333 6.99999 30.3333H28C29.2892 30.3333 30.3333 29.2892 30.3333 28V7C30.3333 5.71083 29.2892 4.66667 28 4.66667ZM12.7797 25.6667H9.33799V14.5927H12.7797V25.6667ZM11.0238 13.0095C9.91432 13.0095 9.01716 12.11 9.01716 11.0028C9.01716 9.89567 9.91549 8.99733 11.0238 8.99733C12.1298 8.99733 13.0293 9.89683 13.0293 11.0028C13.0293 12.11 12.1298 13.0095 11.0238 13.0095ZM25.6713 25.6667H22.232V20.2813C22.232 18.9968 22.2087 17.3448 20.4435 17.3448C18.6527 17.3448 18.3773 18.7437 18.3773 20.188V25.6667H14.938V14.5927H18.2397V16.1058H18.2863C18.746 15.2355 19.8683 14.3173 21.5425 14.3173C25.0273 14.3173 25.6713 16.611 25.6713 19.593V25.6667Z" fill="#EDE6DB"/>
</g>
</svg>
